<?xml version="1.0" standalone="no"?>
<!DOCTYPE svg PUBLIC "-//W3C//DTD SVG 20010904//EN"
 "http://www.w3.org/TR/2001/REC-SVG-20010904/DTD/svg10.dtd">
<svg version="1.0" xmlns="http://www.w3.org/2000/svg"
 width="300.000000pt" height="300.000000pt" viewBox="0 0 300.000000 300.000000"
 preserveAspectRatio="xMidYMid meet">
<metadata>
Created by potrace 1.11, written by Peter Selinger 2001-2013
</metadata>
<g transform="translate(0.000000,300.000000) scale(0.100000,-0.100000)"
fill="#000000" stroke="none">
<path d="M213 2902 c-137 -235 -190 -329 -196 -345 -6 -15 0 -17 46 -16 28 1
61 1 73 0 l21 -1 -1 -1181 c-1 -649 3 -1183 7 -1186 7 -4 144 -6 322 -4 l50 1
0 90 c1 74 -2 90 -15 91 -8 1 -44 2 -80 3 l-65 1 -2 265 c-1 146 0 274 2 285
4 19 11 20 132 19 70 0 147 -6 170 -13 39 -11 92 -47 120 -81 34 -42 84 -192
119 -357 14 -68 73 -295 78 -300 3 -3 352 -5 776 -5 706 0 770 -2 771 -17 0
-9 1 -46 1 -83 l0 -68 41 25 c23 14 95 56 160 93 160 91 200 114 226 132 21
14 15 19 -156 117 -98 56 -200 114 -226 128 l-47 27 1 -69 c1 -37 1 -75 0 -83
-1 -13 -83 -15 -678 -15 -373 0 -683 3 -689 7 -9 6 -17 33 -39 133 -24 115
-71 280 -90 322 -26 58 -96 139 -128 149 -18 6 -12 11 37 36 126 64 220 197
232 329 16 176 -69 337 -217 411 -101 51 -165 61 -391 62 l-206 1 0 368 0 367
37 1 c86 2 106 5 104 14 -1 9 -237 422 -245 431 -2 2 -27 -36 -55 -84z m577
-1301 c93 -27 150 -89 167 -187 24 -128 -29 -237 -139 -284 -49 -21 -68 -23
-248 -24 l-195 -1 -1 257 -1 256 186 -2 c111 -2 204 -8 231 -15z"/>
</g>
</svg>
